<svg width="104" height="110" viewBox="0 0 104 110" fill="none" xmlns="http://www.w3.org/2000/svg">
<g id="Vector" filter="url(#filter0_d_337_42110)">
<path d="M71.8373 2C74.4322 2 76.4076 2.59306 77.7635 3.77919C79.1194 4.94159 79.7973 6.49542 79.7973 8.44066C79.7973 9.03372 79.7506 9.56748 79.6571 10.0419C79.3765 11.7499 78.6635 13.2563 77.518 14.5611C76.3725 15.8421 74.853 16.7554 72.9594 17.301L76.8167 27.0865H69.1723L65.8761 17.8348H65.1397L63.5267 27.0865H56.6187L61.0019 2H71.8373ZM65.9813 13.0665H69.3827C71.2061 13.0665 72.2815 12.1888 72.6088 10.4334C72.6555 10.1487 72.6789 9.94704 72.6789 9.82843C72.6789 9.18792 72.4685 8.68975 72.0477 8.33391C71.6503 7.97807 71.0542 7.80015 70.2594 7.80015H66.858L65.9813 13.0665Z" fill="#242424"/>
<path d="M90.1114 7.51548L89.4101 11.6788H97.2999L96.3531 16.9808H88.4633L87.6568 21.5355H96.5986L95.6518 27.0865H79.802L84.1852 2H100L99.0532 7.51548H90.1114Z" fill="#242424"/>
<path d="M23.023 45.2213C23.4438 42.7542 24.3321 40.5598 25.688 38.6383C27.0439 36.6931 28.7504 35.1867 30.8076 34.1192C32.8648 33.028 35.1091 32.4823 37.5403 32.4823C39.5741 32.4823 41.3508 32.8619 42.8703 33.621C44.3899 34.3801 45.5704 35.4595 46.412 36.8591C47.2536 38.2588 47.7095 39.9075 47.7796 41.8053H40.3807C40.1001 40.8801 39.6092 40.1684 38.9079 39.6703C38.2066 39.1721 37.3416 38.923 36.313 38.923C34.7233 38.923 33.3558 39.4923 32.2103 40.631C31.0648 41.7697 30.3284 43.2998 30.0011 45.2213C29.9076 45.7195 29.8609 46.2533 29.8609 46.8226C29.8609 48.2934 30.2349 49.4558 30.983 50.3098C31.7544 51.1401 32.8064 51.5552 34.1389 51.5552C35.1675 51.5552 36.1143 51.3061 36.9793 50.808C37.8676 50.3098 38.604 49.5981 39.1884 48.6729H46.6224C45.5003 51.5434 43.7353 53.8207 41.3274 55.505C38.9196 57.1656 36.1727 57.9959 33.0869 57.9959C30.9596 57.9959 29.1128 57.5807 27.5465 56.7505C26.0036 55.9202 24.823 54.7459 24.0048 53.2277C23.1866 51.7094 22.7775 49.954 22.7775 47.9613C22.7775 47.0361 22.8593 46.1228 23.023 45.2213Z" fill="#242424"/>
<path d="M60.1864 58.0671C58.1058 58.0671 56.2707 57.6282 54.681 56.7505C53.0914 55.8727 51.864 54.6392 50.9991 53.0497C50.1341 51.4603 49.7016 49.6337 49.7016 47.5698C49.7016 44.6045 50.3095 41.9713 51.5251 39.6703C52.7641 37.3454 54.4823 35.5425 56.6798 34.2615C58.9006 32.9805 61.4371 32.34 64.2891 32.34C66.4164 32.34 68.2749 32.7789 69.8646 33.6566C71.4776 34.5106 72.7166 35.7323 73.5816 37.3217C74.4466 38.8874 74.879 40.7022 74.879 42.766C74.879 45.7076 74.2595 48.3408 73.0205 50.6656C71.7815 52.9904 70.0516 54.8052 67.8308 56.11C65.6099 57.4147 63.0618 58.0671 60.1864 58.0671ZM61.2384 51.5908C62.6176 51.5908 63.8216 51.2231 64.8502 50.4877C65.9021 49.7523 66.697 48.7797 67.2346 47.5698C67.7957 46.3363 68.0762 45.0078 68.0762 43.5845C68.0762 42.0662 67.6671 40.892 66.8489 40.0617C66.0541 39.2077 64.9086 38.7807 63.4124 38.7807C62.0332 38.7807 60.8176 39.1484 59.7656 39.8838C58.7136 40.5954 57.9071 41.5562 57.346 42.766C56.785 43.9759 56.5044 45.3043 56.5044 46.7514C56.5044 48.2459 56.9136 49.4321 57.7318 50.3098C58.55 51.1638 59.7188 51.5908 61.2384 51.5908Z" fill="#242424"/>
<path d="M91.0483 32.7314C93.6432 32.7314 95.6186 33.3245 96.9745 34.5106C98.3303 35.673 99.0083 37.2268 99.0083 39.1721C99.0083 39.7651 98.9615 40.2989 98.868 40.7733C98.5875 42.4814 97.8745 43.9877 96.729 45.2925C95.5835 46.5735 94.064 47.4868 92.1704 48.0324L96.0277 57.818H88.3833L85.0871 48.5662H84.3507L82.7377 57.818H75.8297L80.2129 32.7314H91.0483ZM85.1923 43.798H88.5937C90.4171 43.798 91.4925 42.9202 91.8198 41.1648C91.8665 40.8801 91.8899 40.6785 91.8899 40.5598C91.8899 39.9193 91.6795 39.4212 91.2587 39.0653C90.8613 38.7095 90.2652 38.5316 89.4703 38.5316H86.0689L85.1923 43.798Z" fill="#242424"/>
<path d="M29.6581 63.4628C31.9257 63.4628 33.8894 63.878 35.5492 64.7083C37.209 65.5148 38.4714 66.6654 39.3364 68.1599C40.2013 69.6544 40.6338 71.398 40.6338 73.3907C40.6338 74.2922 40.552 75.1581 40.3883 75.9883C39.9675 78.408 39.0558 80.5668 37.6532 82.4646C36.2739 84.3624 34.5089 85.8569 32.3582 86.9481C30.2309 88.0156 27.8698 88.5494 25.2749 88.5494H15.4915L19.8747 63.4628H29.6581ZM25.8359 82.429C27.8464 82.429 29.5179 81.8715 30.8504 80.7566C32.1829 79.6179 33.0362 78.0285 33.4102 75.9883C33.5037 75.5139 33.5505 75.0038 33.5505 74.4582C33.5505 72.8688 33.0712 71.6471 32.1128 70.7931C31.1543 69.9391 29.8101 69.5121 28.0802 69.5121H25.7307L23.4514 82.429H25.8359Z" fill="#242424"/>
<path d="M52.3932 63.4628L49.9035 78.0166C49.8334 78.4436 49.7983 78.8469 49.7983 79.2265C49.7983 80.1754 50.0438 80.9107 50.5347 81.4326C51.049 81.9545 51.8322 82.2155 52.8842 82.2155C54.1465 82.2155 55.1634 81.8478 55.9349 81.1124C56.7064 80.377 57.209 79.3451 57.4427 78.0166L59.9675 63.4628H66.8404L64.3157 78.0166C63.9183 80.3889 63.1117 82.3815 61.8961 83.9947C60.6805 85.6078 59.196 86.8177 57.4427 87.6242C55.6894 88.4071 53.7725 88.7985 51.6919 88.7985C49.0035 88.7985 46.8411 88.0868 45.2047 86.6635C43.5917 85.2401 42.7851 83.2 42.7851 80.5431C42.7851 79.689 42.867 78.8469 43.0306 78.0166L45.5554 63.4628H52.3932Z" fill="#242424"/>
<path d="M99.4839 63.4628L95.1006 88.5494H88.2627L90.6823 74.6717L83.5639 88.5494H77.8131L75.5689 74.6006L73.1493 88.5494H66.2413L70.6245 63.4628H78.9352L82.3366 79.7246L91.2083 63.4628H99.4839Z" fill="#242424"/>
<path fill-rule="evenodd" clip-rule="evenodd" d="M7.18782 99.8715V86.932H4V103.106H19.9391V99.8715H7.18782Z" fill="#93F009"/>
</g>
<defs>
<filter id="filter0_d_337_42110" x="0" y="0" width="104" height="109.106" filterUnits="userSpaceOnUse" color-interpolation-filters="sRGB">
<feFlood flood-opacity="0" result="BackgroundImageFix"/>
<feColorMatrix in="SourceAlpha" type="matrix" values="0 0 0 0 0 0 0 0 0 0 0 0 0 0 0 0 0 0 127 0" result="hardAlpha"/>
<feOffset dy="2"/>
<feGaussianBlur stdDeviation="2"/>
<feComposite in2="hardAlpha" operator="out"/>
<feColorMatrix type="matrix" values="0 0 0 0 0 0 0 0 0 0 0 0 0 0 0 0 0 0 0.15 0"/>
<feBlend mode="normal" in2="BackgroundImageFix" result="effect1_dropShadow_337_42110"/>
<feBlend mode="normal" in="SourceGraphic" in2="effect1_dropShadow_337_42110" result="shape"/>
</filter>
</defs>
</svg>
